<svg xmlns="http://www.w3.org/2000/svg" xmlns:xlink="http://www.w3.org/1999/xlink" width="500" zoomAndPan="magnify" viewBox="0 0 375 374.999991" height="500" preserveAspectRatio="xMidYMid meet" version="1.0"><defs><clipPath id="7ed5cd01eb"><path d="M 34 113.605469 L 341 113.605469 L 341 295.855469 L 34 295.855469 Z M 34 113.605469 " clip-rule="nonzero"/></clipPath></defs><g clip-path="url(#7ed5cd01eb)"><path fill="#ffffff" d="M 187.386719 282.105469 C 195.898438 282.105469 203.875 278.328125 209.269531 271.746094 L 326.558594 128.609375 C 326.78125 128.34375 326.804688 128.128906 326.660156 127.816406 C 326.511719 127.503906 326.328125 127.386719 325.984375 127.386719 L 254.785156 127.386719 C 254.554688 127.386719 254.355469 127.484375 254.207031 127.664062 L 198.605469 195.515625 C 198.015625 196.234375 197.359375 196.894531 196.648438 197.484375 C 196.617188 197.515625 196.585938 197.546875 196.554688 197.578125 L 196.347656 197.773438 C 196.238281 197.875 196.132812 197.980469 196.023438 198.082031 C 195.933594 198.164062 195.84375 198.25 195.757812 198.332031 L 195.550781 198.523438 C 195.433594 198.628906 195.320312 198.738281 195.207031 198.84375 C 195.121094 198.925781 195.03125 199.003906 194.949219 199.082031 L 194.738281 199.273438 C 194.621094 199.378906 194.503906 199.484375 194.390625 199.589844 C 194.304688 199.664062 194.222656 199.734375 194.140625 199.808594 L 193.921875 200.007812 C 193.800781 200.113281 193.683594 200.222656 193.5625 200.324219 C 193.484375 200.398438 193.402344 200.464844 193.320312 200.539062 L 193.109375 200.726562 C 192.980469 200.835938 192.855469 200.941406 192.730469 201.050781 C 192.65625 201.117188 192.574219 201.183594 192.496094 201.253906 L 192.292969 201.425781 C 192.160156 201.539062 192.03125 201.652344 191.894531 201.761719 L 191.476562 202.113281 C 191.335938 202.234375 191.195312 202.347656 191.054688 202.464844 C 190.984375 202.523438 190.910156 202.582031 190.839844 202.640625 L 190.65625 202.789062 C 190.503906 202.914062 190.355469 203.03125 190.210938 203.152344 L 189.792969 203.484375 C 189.644531 203.601562 189.5 203.714844 189.359375 203.828125 L 188.96875 204.132812 C 188.8125 204.253906 188.65625 204.375 188.5 204.496094 L 188.132812 204.777344 C 187.96875 204.902344 187.804688 205.023438 187.640625 205.148438 L 187.273438 205.417969 C 187.109375 205.542969 186.941406 205.664062 186.773438 205.789062 L 186.4375 206.035156 C 186.257812 206.164062 186.078125 206.289062 185.902344 206.417969 L 185.566406 206.65625 C 185.386719 206.78125 185.207031 206.910156 185.027344 207.035156 L 184.753906 207.222656 C 184.554688 207.359375 184.351562 207.5 184.148438 207.636719 L 183.871094 207.824219 C 183.667969 207.960938 183.464844 208.097656 183.261719 208.234375 L 183.003906 208.402344 C 182.792969 208.539062 182.582031 208.675781 182.371094 208.8125 L 182.113281 208.976562 C 181.902344 209.109375 181.691406 209.246094 181.476562 209.378906 L 181.25 209.519531 C 181.023438 209.660156 180.804688 209.796875 180.582031 209.933594 L 180.355469 210.070312 C 180.128906 210.207031 179.90625 210.34375 179.679688 210.476562 L 179.460938 210.605469 C 179.230469 210.742188 179.003906 210.875 178.773438 211.007812 L 178.554688 211.132812 C 178.328125 211.261719 178.097656 211.394531 177.863281 211.523438 L 177.65625 211.640625 C 177.421875 211.769531 177.183594 211.902344 176.949219 212.03125 L 176.757812 212.132812 C 176.511719 212.269531 176.273438 212.394531 176.03125 212.519531 L 175.851562 212.617188 C 175.601562 212.75 175.355469 212.878906 175.113281 213.003906 L 174.933594 213.09375 C 174.679688 213.222656 174.433594 213.347656 174.1875 213.46875 L 174.015625 213.550781 C 173.761719 213.675781 173.511719 213.804688 173.257812 213.921875 L 173.070312 214.011719 C 172.824219 214.128906 172.574219 214.25 172.324219 214.367188 L 172.152344 214.445312 C 171.902344 214.5625 171.644531 214.679688 171.390625 214.792969 L 171.230469 214.867188 C 170.96875 214.980469 170.710938 215.097656 170.453125 215.210938 L 170.289062 215.28125 C 170.03125 215.390625 169.773438 215.503906 169.511719 215.613281 L 169.359375 215.679688 C 169.097656 215.785156 168.832031 215.894531 168.566406 216 L 168.417969 216.0625 C 168.152344 216.171875 167.882812 216.277344 167.617188 216.382812 L 167.480469 216.433594 C 167.207031 216.539062 166.9375 216.644531 166.667969 216.742188 L 166.53125 216.792969 C 166.257812 216.894531 165.984375 216.996094 165.714844 217.09375 L 165.570312 217.144531 C 165.300781 217.242188 165.027344 217.339844 164.757812 217.433594 L 164.613281 217.480469 C 164.339844 217.574219 164.070312 217.664062 163.796875 217.753906 L 163.667969 217.800781 C 163.390625 217.890625 163.113281 217.980469 162.832031 218.066406 L 162.71875 218.105469 C 162.433594 218.195312 162.152344 218.28125 161.871094 218.367188 L 161.753906 218.398438 C 161.476562 218.484375 161.191406 218.566406 160.902344 218.648438 L 160.78125 218.683594 C 160.503906 218.765625 160.21875 218.84375 159.933594 218.921875 L 159.804688 218.957031 C 159.53125 219.03125 159.246094 219.105469 158.964844 219.179688 L 158.835938 219.210938 C 158.558594 219.28125 158.273438 219.355469 157.988281 219.421875 L 157.894531 219.445312 C 157.59375 219.519531 157.304688 219.585938 157.015625 219.652344 L 156.886719 219.683594 C 156.605469 219.746094 156.324219 219.808594 156.039062 219.871094 L 155.9375 219.890625 C 155.636719 219.953125 155.347656 220.015625 155.058594 220.074219 L 154.96875 220.089844 C 154.660156 220.152344 154.367188 220.207031 154.078125 220.261719 L 153.984375 220.277344 C 153.683594 220.335938 153.390625 220.390625 153.09375 220.4375 L 153 220.453125 C 152.703125 220.507812 152.40625 220.554688 152.109375 220.601562 L 152.015625 220.617188 C 151.71875 220.660156 151.421875 220.707031 151.125 220.75 L 151.03125 220.761719 C 150.734375 220.804688 150.4375 220.84375 150.136719 220.886719 L 150.046875 220.894531 C 149.746094 220.933594 149.449219 220.972656 149.148438 221.007812 L 149.101562 221.007812 C 148.78125 221.046875 148.472656 221.082031 148.160156 221.109375 L 148.101562 221.117188 C 147.785156 221.148438 147.476562 221.179688 147.171875 221.203125 L 147.0625 221.210938 C 146.757812 221.238281 146.46875 221.261719 146.175781 221.285156 L 146.097656 221.289062 C 145.792969 221.308594 145.488281 221.328125 145.1875 221.347656 L 145.097656 221.351562 C 144.796875 221.367188 144.496094 221.382812 144.195312 221.398438 L 144.097656 221.398438 C 143.792969 221.414062 143.496094 221.421875 143.199219 221.429688 L 143.082031 221.433594 C 142.789062 221.445312 142.496094 221.449219 142.207031 221.457031 L 142.054688 221.457031 C 141.777344 221.460938 141.492188 221.460938 141.210938 221.464844 L 141.0625 221.460938 C 140.425781 221.460938 139.808594 221.453125 139.222656 221.433594 C 139.148438 221.429688 139.074219 221.429688 139 221.425781 L 138.785156 221.421875 C 138.597656 221.414062 138.414062 221.410156 138.226562 221.398438 C 137.894531 221.382812 137.5625 221.367188 137.230469 221.351562 C 136.59375 221.3125 135.945312 221.265625 135.304688 221.210938 C 130.832031 220.832031 126.421875 220.015625 122.101562 218.777344 L 165.503906 271.746094 C 170.898438 278.328125 178.875 282.105469 187.386719 282.105469 Z M 176.667969 196.09375 C 176.496094 195.90625 176.332031 195.710938 176.167969 195.515625 L 120.566406 127.664062 C 120.417969 127.480469 120.21875 127.386719 119.988281 127.386719 L 48.789062 127.386719 C 48.441406 127.386719 48.261719 127.503906 48.113281 127.816406 C 47.96875 128.125 47.996094 128.347656 48.210938 128.609375 L 92.074219 182.136719 L 92.140625 182.214844 C 92.296875 182.40625 92.453125 182.59375 92.613281 182.785156 L 92.757812 182.960938 C 92.847656 183.070312 92.945312 183.183594 93.039062 183.292969 L 93.742188 184.113281 C 93.828125 184.210938 93.910156 184.304688 93.996094 184.402344 L 94.191406 184.621094 C 94.332031 184.785156 94.476562 184.949219 94.625 185.113281 L 94.679688 185.171875 C 106.339844 198.171875 120.449219 205.867188 135.46875 207.417969 C 135.742188 207.445312 136.019531 207.472656 136.292969 207.496094 L 136.429688 207.507812 C 136.953125 207.554688 137.488281 207.59375 138.023438 207.621094 C 138.425781 207.644531 138.855469 207.664062 139.335938 207.679688 L 139.492188 207.6875 C 139.894531 207.699219 140.320312 207.707031 140.757812 207.710938 L 140.941406 207.710938 C 141.382812 207.710938 141.8125 207.710938 142.214844 207.703125 L 142.351562 207.703125 C 143.257812 207.679688 144.171875 207.640625 145.066406 207.578125 L 145.121094 207.574219 C 145.546875 207.542969 145.980469 207.503906 146.449219 207.460938 L 146.574219 207.449219 C 147.019531 207.40625 147.460938 207.359375 147.886719 207.308594 L 147.996094 207.296875 C 149.367188 207.125 150.75 206.90625 152.113281 206.636719 L 152.226562 206.617188 C 152.652344 206.535156 153.09375 206.441406 153.53125 206.34375 L 153.644531 206.316406 C 154.109375 206.210938 154.554688 206.105469 154.980469 206.003906 L 155.015625 205.992188 C 155.914062 205.773438 156.828125 205.519531 157.730469 205.25 L 157.835938 205.21875 C 158.25 205.09375 158.6875 204.960938 159.125 204.816406 L 159.261719 204.773438 C 159.707031 204.625 160.140625 204.476562 160.554688 204.335938 L 160.644531 204.300781 C 161.523438 203.988281 162.414062 203.65625 163.289062 203.300781 L 163.394531 203.261719 C 163.796875 203.097656 164.21875 202.921875 164.652344 202.734375 L 164.816406 202.660156 C 165.238281 202.480469 165.65625 202.296875 166.054688 202.113281 L 166.195312 202.050781 C 166.667969 201.832031 167.082031 201.636719 167.476562 201.445312 L 167.496094 201.4375 C 167.898438 201.238281 168.316406 201.03125 168.769531 200.800781 L 168.875 200.746094 C 169.261719 200.542969 169.660156 200.335938 170.09375 200.105469 L 170.28125 200.003906 C 170.679688 199.785156 171.078125 199.5625 171.46875 199.34375 L 171.652344 199.238281 C 172.089844 198.988281 172.484375 198.757812 172.855469 198.535156 L 172.953125 198.476562 C 173.347656 198.238281 173.75 197.992188 174.148438 197.746094 L 174.246094 197.683594 C 174.609375 197.457031 174.996094 197.207031 175.425781 196.925781 L 175.617188 196.800781 C 175.964844 196.566406 176.316406 196.332031 176.667969 196.09375 Z M 48.789062 113.640625 L 119.988281 113.640625 C 124.355469 113.640625 128.445312 115.574219 131.207031 118.953125 L 186.808594 186.800781 C 187.050781 187.101562 187.542969 187.160156 187.839844 186.925781 L 187.851562 186.917969 C 187.886719 186.886719 187.925781 186.847656 187.957031 186.808594 L 243.566406 118.949219 C 246.332031 115.574219 250.421875 113.640625 254.785156 113.640625 L 325.984375 113.640625 C 331.644531 113.640625 336.664062 116.816406 339.089844 121.929688 C 341.515625 127.042969 340.789062 132.941406 337.203125 137.320312 L 219.910156 280.457031 C 211.894531 290.242188 200.039062 295.851562 187.386719 295.851562 C 174.734375 295.851562 162.882812 290.242188 154.863281 280.457031 L 81.554688 190.996094 C 81.503906 190.9375 81.453125 190.875 81.40625 190.816406 L 37.570312 137.320312 C 33.980469 132.941406 33.257812 127.042969 35.683594 121.929688 C 38.105469 116.816406 43.125 113.640625 48.789062 113.640625 " fill-opacity="1" fill-rule="nonzero"/></g></svg>